<svg width="154" height="36" viewBox="0 0 154 36" fill="none" xmlns="http://www.w3.org/2000/svg">
<g id="inchoo-logo 1" clip-path="url(#clip0_14_1673)">
<g id="Page-1">
<g id="logo">
<g id="Layer%201">
<path id="type" fill-rule="evenodd" clip-rule="evenodd" d="M45.9163 15.6209H44.4926V31.7487C44.4926 33.7732 45.9311 35.0603 47.8564 35.0603H49.3541L49.3496 19.0832C49.3496 17.2441 48.2565 15.6209 45.9163 15.6209ZM46.8131 8.02429C45.2407 8.02429 43.9607 9.31169 43.9607 10.8938C43.9607 12.4754 45.2407 13.799 46.8131 13.799C48.386 13.799 49.7029 12.4754 49.7029 10.8938C49.7029 9.31169 48.386 8.02429 46.8131 8.02429ZM62.9636 14.7558C61.2516 14.7558 59.6094 15.9126 58.1934 17.4688C57.7124 16.3937 56.7061 15.6209 55.0993 15.6209H53.6755V25.4851V31.7487V31.8241C53.6755 32.5177 53.8681 33.1486 54.2209 33.6654C54.8093 34.5491 55.8262 35.0603 57.039 35.0603H57.1126H58.5365H58.5744V24.3273C58.5744 20.9855 60.0731 19.1338 62.195 19.1338C64.7187 19.1338 66.1447 20.6034 66.1447 23.9514V31.8241C66.1447 33.6626 67.5348 35.0603 69.729 35.0603H71.0448V23.5089C71.0448 17.8824 68.1487 14.7558 62.9636 14.7558ZM101.708 14.7558C99.8429 14.7558 98.1599 16.2269 97.4293 17.4048V11.7387C97.4293 9.90016 96.2951 8.57632 93.9555 8.57632H92.4203V31.7487C92.4203 33.7732 93.4796 35.0603 95.7839 35.0603H97.3925V23.8038C97.3925 20.3104 99.404 19.1338 100.94 19.1338C103.097 19.1338 104.853 20.4216 104.853 23.6569V31.7487C104.853 33.8831 106.131 35.0603 108.181 35.0603H109.789V23.4361C109.789 17.809 106.79 14.7558 101.708 14.7558ZM122.658 14.7558C116.294 14.7558 112.893 19.5382 112.893 25.4957C112.893 30.7555 116.294 35.5021 122.218 35.5021C128.58 35.5021 131.981 30.7555 131.981 24.798C131.981 19.5382 128.58 14.7558 122.658 14.7558ZM122.658 31.0877C119.402 31.0877 117.976 28.7335 117.976 24.798C117.976 21.5238 119.402 19.1705 122.218 19.1705C125.436 19.1705 126.9 21.5238 126.9 25.4957C126.9 28.7335 125.51 31.0877 122.658 31.0877ZM144.414 14.9675C138.05 14.9675 134.648 19.7492 134.648 25.7074C134.648 30.9671 138.05 35.7135 143.973 35.7135C150.338 35.7135 153.739 30.9671 153.739 25.0094C153.739 19.7492 150.338 14.9675 144.414 14.9675ZM144.414 31.2993C141.158 31.2993 139.733 28.9449 139.733 25.0094C139.733 21.7351 141.158 19.3819 143.973 19.3819C147.193 19.3819 148.655 21.7351 148.655 25.7074C148.655 28.9449 147.265 31.2993 144.414 31.2993ZM84.6504 30.9382C80.8604 30.9382 79.1547 28.4739 79.1547 24.868C79.1547 21.926 81.7628 19.6742 84.5304 19.6076L85.6662 19.5618C89.3908 19.4528 89.0358 15.2224 89.0358 15.2224L85.554 15.0833C77.5324 15.0833 74.0355 19.9396 74.0355 25.6041C74.0355 31.2689 78.5195 35.4987 83.4659 35.4987C90.2405 35.4987 89.6593 30.6217 89.6593 30.6217C89.6593 30.6217 86.4842 30.9382 84.6504 30.9382Z" fill="#404041"/>
<path id="icon" fill-rule="evenodd" clip-rule="evenodd" d="M9.72794 35.1002C4.24197 35.1002 0.435211 31.04 0.435211 25.5674V0.0394897H25.303C30.6987 0.0394897 34.7684 4.36414 34.7684 9.74974V35.1002H9.72794ZM30.7697 9.74974C30.7697 7.13658 29.059 4.4134 25.303 4.4134H4.34638V25.5674C4.34638 28.0681 5.69122 30.7272 9.72794 30.7272H25.5288L14.7893 18.4461C14.4793 18.0354 14.2948 17.5222 14.2948 16.9668C14.2948 15.6149 15.3843 14.5187 16.7285 14.5187C17.2424 14.5187 17.7203 14.6788 18.1137 14.9527L30.7697 24.8574V9.74974ZM10.4178 13.799C8.84596 13.799 7.56637 12.4754 7.56637 10.8938C7.56637 9.31168 8.84596 8.02429 10.4178 8.02429C11.9913 8.02429 13.3076 9.31168 13.3076 10.8938C13.3076 12.4754 11.9913 13.799 10.4178 13.799Z" fill="#79AD36"/>
</g>
</g>
</g>
</g>
<defs>
<clipPath id="clip0_14_1673">
<rect width="154" height="36" fill="white"/>
</clipPath>
</defs>
</svg>
